<?xml version="1.0" encoding="UTF-8"?>
<svg version="1.1" xmlns="http://www.w3.org/2000/svg" width="128" height="128">
<path d="M0 0 C0.93714844 0.4125 1.87429687 0.825 2.83984375 1.25 C17.29754556 8.38760314 27.71085658 20.83444658 33 36 C37.53138104 51.08279178 36.45396588 68.1713026 29.38671875 82.203125 C21.42496228 96.53781736 9.99817019 107.15007461 -6 112 C-9.05245423 112.57585307 -11.88806468 112.84440323 -15 113 C-15.495 109.04 -15.495 109.04 -16 105 C-15.03320312 104.72027344 -14.06640625 104.44054687 -13.0703125 104.15234375 C-0.82871363 100.64177869 -0.82871363 100.64177869 9 93 C9.79096016 89.50956935 9.63476104 86.50529155 9 83 C7.02 82.01 7.02 82.01 5 81 C4.6875 78.25 4.6875 78.25 5 75 C7.5 72.625 7.5 72.625 10 71 C9.31649299 68.97978102 9.31649299 68.97978102 8 67 C5.92347562 66.19610828 5.92347562 66.19610828 3.5625 65.9375 C0.04463699 65.4217013 -1.82875858 64.91296985 -4 62 C-4.226875 60.700625 -4.45375 59.40125 -4.6875 58.0625 C-5.26193899 55.32131744 -5.58118403 54.30841678 -7.8671875 52.625 C-9.88419937 51.64879497 -11.91291815 50.81189778 -14 50 C-15 49 -15 49 -15.3125 45.25 C-15.2443002 42.30691623 -15.00051994 41.00101625 -13.625 38.3125 C-10.45922104 35.52359949 -7.19229419 33.98281657 -3.33984375 32.30859375 C-0.70684454 30.83604828 0.48252666 29.59235029 2 27 C2.73709001 20.68208559 1.51312373 16.29905954 -2 11 C-5.5127985 6.66372648 -10.74251723 6.01916444 -16 5 C-20.7873927 4.58147027 -25.32909522 4.79460522 -30 6 C-26.38485115 10.08161967 -22.80897532 12.33808962 -17.890625 14.69140625 C-16 16 -16 16 -15.234375 18.15234375 C-15.11835938 19.06693359 -15.11835938 19.06693359 -15 20 C-15.721875 20.54269531 -16.44375 21.08539062 -17.1875 21.64453125 C-18.115625 22.35996094 -19.04375 23.07539063 -20 23.8125 C-21.3921875 24.87404297 -21.3921875 24.87404297 -22.8125 25.95703125 C-23.534375 26.63121094 -24.25625 27.30539063 -25 28 C-25 28.99 -25 29.98 -25 31 C-24.01 31.66 -23.02 32.32 -22 33 C-22.45336079 37.87362847 -23.7089159 40.39042389 -27 44 C-30.84805414 43.7667846 -32.70436401 42.53877965 -35.4375 40 C-37.76630536 37.91367329 -39.13297719 36.94946867 -42.125 35.8125 C-45.22399744 35.75292761 -45.22399744 35.75292761 -47.9375 38.1875 C-48.618125 39.115625 -49.29875 40.04375 -50 41 C-49.69473468 43.14502156 -49.69473468 43.14502156 -49 45 C-48.37351563 44.97679687 -47.74703125 44.95359375 -47.1015625 44.9296875 C-46.28429688 44.91164062 -45.46703125 44.89359375 -44.625 44.875 C-43.81289063 44.85179687 -43.00078125 44.82859375 -42.1640625 44.8046875 C-40 45 -40 45 -38 47 C-37.65941145 48.91187521 -37.35150781 50.82965059 -37.0625 52.75 C-36.15381395 56.77141911 -35.60637557 58.51202913 -32.359375 61.125 C-29.61466123 62.58884735 -26.89978796 63.87750144 -24 65 C-29.93496594 68.95664396 -37.07026346 71.58193773 -44.25 70.75 C-46.10625 70.37875 -46.10625 70.37875 -48 70 C-47.34 69.278125 -46.68 68.55625 -46 67.8125 C-43.78769447 64.70144535 -43.80288526 63.66510225 -44 60 C-45.02480469 59.61328125 -46.04960938 59.2265625 -47.10546875 58.828125 C-48.46632699 58.30255216 -49.82699407 57.77648416 -51.1875 57.25 C-52.19780273 56.87101562 -52.19780273 56.87101562 -53.22851562 56.484375 C-59.51860329 54.02970664 -63.79392661 51.29605241 -66.75 45 C-67.15734375 44.154375 -67.5646875 43.30875 -67.984375 42.4375 C-68.87949311 40.28921654 -69.51635174 38.27104399 -70 36 C-70.474375 37.216875 -70.94875 38.43375 -71.4375 39.6875 C-71.83775391 40.71423828 -71.83775391 40.71423828 -72.24609375 41.76171875 C-73.89849878 46.66756375 -74.11079987 51.14441422 -74.0625 56.3125 C-74.05347656 57.56675781 -74.04445313 58.82101563 -74.03515625 60.11328125 C-74.02355469 61.06589844 -74.01195312 62.01851563 -74 63 C-77.96 63.99 -77.96 63.99 -82 65 C-85.64225501 57.71548998 -83.22697273 44.28420728 -81.03515625 36.83203125 C-74.9405441 20.15809234 -64.4318142 7.73820105 -48.25 0.0625 C-33.60817717 -6.36056379 -14.59123564 -6.49401308 0 0 Z " fill="#00B8FF" transform="translate(93,7)"/>
<path d="M0 0 C4.66727059 0.97255167 9.2306126 2.25017546 13.8125 3.5625 C16.19117941 4.24048109 18.57262024 4.90886672 20.95703125 5.56640625 C21.99835205 5.86490479 23.03967285 6.16340332 24.11254883 6.47094727 C29.21250193 7.40538528 33.32376736 5.58313134 38.125 3.9375 C44.24374189 2.00489852 49.6263235 1.54017564 56 2 C53.53258609 4.64107354 51.42559084 5.79641403 48 7 C52.11577983 5.71282249 52.11577983 5.71282249 56 3.875 C58.81098902 2.6451923 60.96886605 2.67753894 64 3 C65.9375 4.0625 65.9375 4.0625 67 6 C67.27835108 9.61856406 66.92588995 11.89442252 64.55078125 14.73046875 C45.76724085 30.8570054 7.31219386 42.03398293 -17.13671875 41.37109375 C-19 41 -19 41 -21 39 C-20.70570672 37.00534551 -20.40949889 35.01090206 -20.09375 33.01953125 C-19.95629635 30.05855053 -21.40581168 28.42316625 -23 26 C-23.1875 22.6875 -23.1875 22.6875 -23 20 C-19.24423515 18.93858819 -17.17891777 18.39309003 -13.625 20.22265625 C-12.8 20.72667969 -11.975 21.23070313 -11.125 21.75 C-8.64973319 23.25762426 -8.64973319 23.25762426 -6 24 C-2.50533393 22.97124475 0.14925464 21.23790396 3 19 C0.06606668 15.84358832 -2.95456511 13.6207917 -6.625 11.375 C-11.80555556 8.19444444 -11.80555556 8.19444444 -14 6 C-13.8125 4 -13.8125 4 -13 2 C-8.65976591 -0.89348939 -5.10166546 -0.50124259 0 0 Z " fill="#00B7FF" transform="translate(23,76)"/>
<path d="M0 0 C0.89499166 4.02746247 1.1767686 8.01284127 1.3125 12.125 C1.34988281 13.13820313 1.38726562 14.15140625 1.42578125 15.1953125 C1 18 1 18 -0.70703125 20.3671875 C-3 22 -3 22 -5.35546875 22.64453125 C-9.50660066 21.63280782 -11.56509588 18.82882111 -14.3125 15.6875 C-14.86228516 15.09259766 -15.41207031 14.49769531 -15.97851562 13.88476562 C-20 9.4136743 -20 9.4136743 -20 6 C-17.41958904 4.99183944 -14.83613056 3.9932889 -12.25 3 C-11.15558594 2.57074219 -11.15558594 2.57074219 -10.0390625 2.1328125 C-9.33007812 1.86210938 -8.62109375 1.59140625 -7.890625 1.3125 C-7.24125977 1.06113281 -6.59189453 0.80976562 -5.92285156 0.55078125 C-4 0 -4 0 0 0 Z " fill="#00B7FF" transform="translate(71,103)"/>
</svg>
